<?xml version="1.0" encoding="utf-8"?>
<!-- Generator: Adobe Illustrator 30.6.0, SVG Export Plug-In . SVG Version: 9.03 Build 0)  -->
<svg version="1.1" id="Layer_1" xmlns="http://www.w3.org/2000/svg" xmlns:xlink="http://www.w3.org/1999/xlink" x="0px" y="0px"
	 viewBox="0 0 500 500" style="enable-background:new 0 0 500 500;" xml:space="preserve">
<g>
	<path style="fill:#A50A0A;" d="M334.072,279.366l-8.913,7.092c6.468,4.705-4.912,12.952-12.592,19.361
		c-9.108,7.601-19.294,13.294-30.858,15.774c-8.765,1.879-15.194-0.963-22.334-5.548c-13.717-8.809-26.287-20.153-31.879-36.027
		l-5.35-15.187l-5.598-25.57c-0.451-2.061,1.263-5.669,3.22-5.727c3.452-0.102,7.361,0.609,10.318-0.066l22.592-5.152
		c10.025-2.286,19.444-5.521,27.238-11.227c-15.083-0.451-28.467-5.075-38.546-14.941c-4.961-4.855-5.622-11.802-3.776-17.932
		c2.41-8.003,7.459-13.63,12.927-19.652l15.167-16.702l-9.754-2.964c-1.17-0.356-2.526-2.576-2.759-3.616
		c-0.266-1.189,0.689-3.858,1.816-4.51c6.675-3.86,12.571-8.47,15.02-16.866l-15.211,7.094l-11.991,5.477l-11.521,5.028
		c-2.935,1.281-5.731-3.606-4.777-6.321c3.139-8.936,9.715-7.828,10.891-18.579c0.616-5.632,1.61-11.498,0.416-17.055
		c-0.803-3.738-5.002-5.046-8.178-6.067c-8.941-2.874-17.532-5.691-27.609-3.481l9.651,3.371c4.5,1.572,9.492,5.884,8.819,11.505
		c-0.671,5.603-2.76,12.451-6.672,16.708c-7.175,7.808-16.15,13.37-25.44,18.134l-17.308,8.876
		c-3.592,1.842-7.519,0.894-11.228,1.496c-13.529,2.196-26.323,5.91-39.104,10.649c-9.798,3.634-19.614,6.873-30.348,5.357
		c-8.117-1.146-15.783-6.821-19.941-13.793c-3.06-5.132-3.767-10.733-4.999-16.978c-6.051,9.088-6.854,20.12-2.773,30.288
		c5.114,12.742,7.54,12.81,21.405,17.276c9.152,2.948,18.056,4.114,27.472,1.547c4.763-1.299,10.645,2.456,11.029,6.261
		c0.12,1.194-1.055,3.782-2.016,4.501l-15.899,11.9c-9.051,6.774-17.429,13.768-22.582,24.139
		c13.464,2.727,26.814-1.093,36.137-10.54l4.764-4.827l11.719-13.489c0.594-0.684,2.995-1.096,3.547-0.467
		c0.731,0.833,0.287,2.22-0.182,3.904c-1.011,3.626-0.594,8.072-0.645,12.112l-0.465,37.205
		c-0.172,13.744-1.542,27.158-5.881,40.152l-3.779,11.315c-3.153,9.442-6.844,18.192-8.294,28.091l-4.227,28.848l-3.05,15.858
		c-0.09,6.447,5.954,11.787,10.757,14.925c4.16,2.717,8,4.249,12.507,5.938c11.177,4.189,22.231,8.062,34.286,9.08
		c2.67,0.225,5.079,0.794,7.113,2.683c-0.451,1.351-2.755,3.248-4.344,3.345c-11.403,0.69-22.25,0.131-33.19-3.191
		c-15.468-4.697-29.485-14.069-37.131-28.611c-2.834-5.39-1.667-13.025,0.073-18.605l10.916-35.014l4.717-18.049l2.248-14.539
		c1.867-12.077,3.72-23.614,4.752-35.837l3.635-43.07c-11.007,14.769-36.555,30.794-50.974,20.73
		c-4.686-3.27-6.435-8.772-3.811-13.612c4.428-8.169,9.321-16.373,16.81-21.905l13.635-10.07l-25.424-1.092l-7.313-1.126
		c-10.639-1.638-16.652-9.154-19.285-18.987c-3.945-14.729-1.276-29.995,9.728-41.035c1.521-1.526,4.739-3.622,6.795-1.204
		c2.092,2.461,3.153,6.572,4.003,9.917c1.806,5.903,6.134,10.919,12.409,11.819l25.391-5.272c9.981-2.072,18.861-3.395,29.316-3.246
		c7.857,0.112,17.552,1.306,24.906-1.831c14.345-6.12,26.258-15.561,39.18-23.889c5.06-3.261,9.372-7.965,9.051-14.329
		c-0.36-7.137-13.265-5.249-15.375-8.705c-3.438-5.631,1.209-11.558,6.83-12.981c9.945-2.517,19.414-0.413,28.944,3.11
		c18.772,6.939,18.215,18.986,16.671,38.422c9.427-4.504,22.448-11.256,28.198-6.18c5.929,5.233-0.691,18.795-8.2,25.692
		l11.463,0.436c4.315-3.06,8.632-5.41,13.124-7.598c6.704-3.265,12.333-4.47,20.208-3.302c6.356,0.943,14.775,5.396,16.436,12.639
		c2.152,9.387,1.279,19.103,0.931,28.768c-0.187,5.207-1.438,10.66-4.263,14.986l-10.62,16.268
		c-4.999,7.657-13.704,10.688-20.891,15.439l-29.065,19.213c-8.128,5.373-17.301,8.658-27.141,8.908
		c-4.842,0.123-9.283-2.091-14.476-3.042l10.844,31.444l5.825,12.015l15.146-19.593c9.516-10.404,19.514-19.928,30.582-28.667
		l19.019-15.017c7.545-5.957,16.589-8.879,26.218-10.229l41.634-5.837l10.086-1.168c7.164-10.993,14.202-22.524,19.361-34.832
		l4.825-15.088c2.203-6.888,2.829-13.942,2.59-21.158c-14.101,8.312-24.729,19.695-35.851,31.346l-10.817,11.332l-11.797,11.963
		l-13.699,13.219c-0.73,0.704-2.92,0.83-3.743,0.454c-0.823-0.376-0.955-3.086-0.422-3.856
		c7.436-10.762,14.786-21.278,24.406-30.131l14.417-13.268c7.964-10.096,16.215-18.849,26.972-26.317
		c5.223-3.626,14.522-8.364,20.702-3.792c6.946,5.138,12.394,14.241,16.006,22.213c7.782,17.173,12.321,38.333,12.418,57.213
		c0.077,14.975-3.754,28.886-7.004,43.235c-2.518,11.116-5.946,20.881-11.143,30.984c-5.527,10.744-10.863,21.41-18.296,30.743
		l-0.597,13.688l-1.994,17.842c-0.596,5.332-3.628,9.959-5.422,15.034c-5.831,16.49-12.784,32.01-24.357,45.529
		c-3.343,3.905-8.731,6.767-13.269,9.343c-6.293,3.572-13.171,3.933-20.119,4.645l-36.849,3.778l-30.853,4.432
		c-7.58,1.089-14.46,0.385-22.019-0.247l-32.029-2.678l-23.159-5.19l-20.921-4.145c6.634-5.844,26.633-1.823,37.238-1.594
		l34.412,0.745c12.51,0.271,24.403,0.232,36.784-2.025l28.843-2.803l11.604-0.585c-1.309-2.292-1.854-4.31-0.931-5.798l4.999-8.056
		c12.624-17.056,23.761-34.712,31.899-54.673c-16.746,0.819-26.618-12.925-29.455-28.291l-39.41,39.669l-17.848,17.876
		l-18.448,17.196c-4.985,4.646-13.481,13.933-16.18,9.704c-0.535-0.838,0.002-2.955,0.691-3.702l6.935-7.532l15.869-16.498
		l16.248-17.042l39.438-40.424l23.891-21.175c4.076-3.613,9.735-3.904,14.469-1.11c5.962,3.518,11.741,7.619,16.87,12.311
		c5.481,5.015,7.634,12.292,7.204,19.007l10.392-5.207c10.046-5.034,25.704-36.629,29.668-49.196
		c5.633-17.862,10.228-51.856,7.588-70.09l-2.314-15.982l-7.23-25.254c-3.68,12.365-9.034,22.966-14.635,34.418
		c-10.784,22.05-24.461,41.378-41.013,59.519C358.217,256.459,347.481,268.696,334.072,279.366z M300.449,197.836
		c-8.101,0.288-14.334-0.731-21.578-2.515c-1.946-0.479-3.721-2.086-3.786-3.952c-0.058-1.67,1.941-4,3.922-3.968l17.651,0.277
		c5.934,0.093,11.053,0.86,14.638,6.876c11.588-11.532,13.945-19.873,12.377-35.974c-0.346-3.55-1.211-7.426-3.465-10.161
		c-1.776-1.344-5.092-2.929-7.184-3.552l-13.457-4.008c-3.745,0.441-8.177,3.683-11.461,5.881l-14.33,9.589
		c-4.902,3.28-8.259,8.637-12.146,13.016l-5.224,5.885c-5.88,6.624-13.527,15.934-7.838,21.14
		c8.758,8.015,19.695,11.149,31.514,11.158c9.002,0.007,17.091-1.623,24.5-7.526L300.449,197.836z M369.058,330.271l5.485-13.792
		c1.952-4.909-2.037-9.198-5.453-11.817l-14.053-10.776c-3.5,1.595-7.701,4.257-10.116,6.898
		c-1.63,7.823,12.907,25.153,16.382,26.494L369.058,330.271z M352.468,401.283c8.767,0.853,16.611-2.27,22.787-7.404l12.015-24.426
		l6.854-15.365c2.846-6.38,5.437-12.403,6.799-19.294l3.131-15.842l-10.193,5.703c-3.931,2.199-7.741,4.163-12.199,4.964
		l-14.131,29.451c-5.438,11.333-12.324,21.454-20.68,30.818l-12.241,13.719L352.468,401.283z"/>
	<path style="fill:#A50A0A;" d="M199.343,198.023c-5.718-1.276-13.202-5.681-11.952-8.971c0.303-0.796,2.357-1.81,3.196-1.658
		l6.563,1.192c3.589,0.652,9.837-2.075,8.515-6.424c-0.749-2.463-4.927-5.845-1.39-8.774c1.406-1.164,4.936,0.043,6.209,1.359
		c3.684,3.811,4.945,14.754,0.418,19.387C208.206,196.895,203.97,199.055,199.343,198.023z"/>
	<path style="fill:#A50A0A;" d="M238.078,166.281c-6.299,1.004-15.364-0.421-15.912-4.226c-0.151-1.049,1.238-3.472,2.286-3.727
		l6.323-1.541c4.27-2.531,5.302-7.242,5.487-11.978c2.19-1.268,4.45,0.801,5.795,2.745c2.351,3.395,4.564,6.758,3.139,11.101
		C244.322,161.323,241.859,165.678,238.078,166.281z"/>
	<path style="fill:#A50A0A;" d="M316.644,158.363c1.995,7.964,2.477,19.659-1.454,21.071c-1.085,0.39-4.028-0.526-4.609-1.702
		c-4.481-9.069-8.375-21.426-0.382-23.456C312.656,153.653,315.926,155.496,316.644,158.363z"/>
</g>
</svg>
